<svg width="120" height="212" viewBox="0 0 120 212" fill="none" xmlns="http://www.w3.org/2000/svg">
<rect y="92" width="30" height="30" fill="#FCE5CD"/>
<rect x="30" y="92" width="30" height="30" fill="#FCE5CD"/>
<rect x="60" y="92" width="30" height="30" fill="#FCE5CD"/>
<rect y="122" width="30" height="30" fill="#FCE5CD"/>
<rect x="60" width="30" height="30" fill="#FCE5CD"/>
<rect x="60" y="51" width="30" height="30" fill="#FCE5CD"/>
<rect y="152" width="30" height="30" fill="#FCE5CD"/>
<rect x="30" y="152" width="30" height="30" fill="#FCE5CD"/>
<rect x="15" y="32" width="30" height="30" fill="#FCE5CD"/>
<rect x="90" y="92" width="30" height="30" fill="#FCE5CD"/>
<rect x="90" y="122" width="30" height="30" fill="#FCE5CD"/>
<rect x="90" y="152" width="30" height="30" fill="#FCE5CD"/>
<rect y="182" width="30" height="30" fill="#FCE5CD"/>
<rect x="30" y="182" width="30" height="30" fill="#FCE5CD"/>
<rect x="60" y="182" width="30" height="30" fill="#FCE5CD"/>
<rect x="90" y="182" width="30" height="30" fill="#FCE5CD"/>
</svg>
