<svg width="530" height="557" viewBox="0 0 530 557" fill="none" xmlns="http://www.w3.org/2000/svg">
<path d="M253.857 98.3658C208.123 151.132 213.699 231.089 266.308 276.956C318.917 322.823 398.639 317.233 444.372 264.467C490.106 211.702 484.531 131.744 431.922 85.8768C379.313 40.0096 299.59 45.6 253.857 98.3658Z" stroke="black" stroke-width="1.5"/>
<path d="M254.965 111.666C212.595 160.551 217.761 234.628 266.5 277.121C315.24 319.615 389.098 314.436 431.468 265.551C473.838 216.666 468.672 142.59 419.933 100.096C371.194 57.6026 297.335 62.7817 254.965 111.666Z" stroke="black" stroke-width="1.5"/>
<path d="M255.954 125.868C217.221 170.557 221.943 238.275 266.499 277.122C311.055 315.968 378.574 311.233 417.307 266.544C456.04 221.855 451.319 154.137 406.763 115.29C362.207 76.4439 294.687 81.1786 255.954 125.868Z" stroke="black" stroke-width="1.5"/>
<path d="M256.747 137.228C220.923 178.561 225.29 241.193 266.499 277.122C307.709 313.05 370.157 308.671 405.981 267.339C441.805 226.006 437.437 163.374 396.228 127.445C355.019 91.5169 292.571 95.8959 256.747 137.228Z" stroke="black" stroke-width="1.5"/>
<path d="M257.372 148.778C224.549 186.649 228.55 244.037 266.308 276.956C304.066 309.876 361.285 305.863 394.109 267.993C426.933 230.121 422.931 172.734 385.173 139.815C347.415 106.895 290.196 110.907 257.372 148.778Z" stroke="black" stroke-width="1.5"/>
<path d="M258.578 163.5C229.482 197.071 233.029 247.941 266.499 277.122C299.97 306.303 350.69 302.746 379.787 269.176C408.883 235.605 405.336 184.735 371.866 155.554C338.395 126.373 287.675 129.93 258.578 163.5Z" stroke="black" stroke-width="1.5"/>
<path d="M259.519 176.99C233.878 206.575 237.004 251.405 266.5 277.121C295.996 302.837 340.694 299.703 366.336 270.119C391.978 240.534 388.851 195.704 359.355 169.987C329.859 144.271 285.161 147.405 259.519 176.99Z" stroke="black" stroke-width="1.5"/>
<path d="M85.6261 292.468C131.36 239.702 211.082 234.113 263.691 279.98C316.3 325.847 321.875 405.804 276.142 458.57C230.408 511.335 150.686 516.926 98.0771 471.059C45.4681 425.192 39.8926 345.234 85.6261 292.468Z" stroke="black" stroke-width="1.5"/>
<path d="M98.9141 291.715C141.284 242.83 215.142 237.651 263.882 280.145C312.621 322.639 317.787 396.715 275.417 445.6C233.047 494.484 159.189 499.664 110.449 457.17C61.7099 414.677 56.5444 340.6 98.9141 291.715Z" stroke="black" stroke-width="1.5"/>
<path d="M113.07 290.721C151.804 246.032 219.323 241.298 263.879 280.144C308.435 318.99 313.157 386.708 274.424 431.397C235.69 476.086 168.171 480.822 123.615 441.976C79.0591 403.129 74.3369 335.41 113.07 290.721Z" stroke="black" stroke-width="1.5"/>
<path d="M124.398 289.927C160.222 248.594 222.67 244.215 263.879 280.143C305.089 316.072 309.457 378.705 273.633 420.037C237.809 461.37 175.36 465.748 134.151 429.82C92.9415 393.891 88.5741 331.259 124.398 289.927Z" stroke="black" stroke-width="1.5"/>
<path d="M135.89 288.942C168.714 251.071 225.932 247.059 263.69 279.978C301.448 312.898 305.45 370.285 272.626 408.156C239.802 446.027 182.584 450.039 144.826 417.12C107.068 384.201 103.066 326.813 135.89 288.942Z" stroke="black" stroke-width="1.5"/>
<path d="M150.594 288.089C179.69 254.519 230.411 250.962 263.881 280.143C297.351 309.324 300.898 360.195 271.802 393.765C242.705 427.336 191.985 430.892 158.515 401.711C125.045 372.53 121.497 321.66 150.594 288.089Z" stroke="black" stroke-width="1.5"/>
<path d="M164.043 287.145C189.685 257.561 234.383 254.427 263.879 280.143C293.375 305.859 296.502 350.69 270.86 380.274C245.219 409.859 200.52 412.992 171.024 387.276C141.528 361.56 138.402 316.73 164.043 287.145Z" stroke="black" stroke-width="1.5"/>
<path d="M175.305 287.961C197.765 262.048 236.916 259.303 262.752 281.827C288.588 304.352 291.326 343.619 268.866 369.532C246.406 395.446 207.255 398.191 181.42 375.666C155.584 353.141 152.846 313.874 175.305 287.961Z" stroke="black" stroke-width="1.5"/>
<path d="M185.05 287.457C205.055 264.376 239.928 261.93 262.94 281.993C285.952 302.056 288.39 337.032 268.385 360.113C248.38 383.194 213.508 385.639 190.496 365.576C167.485 345.513 165.045 310.538 185.05 287.457Z" stroke="black" stroke-width="1.5"/>
<path d="M193.434 287.762C210.984 267.513 241.578 265.368 261.766 282.968C281.954 300.57 284.094 331.253 266.543 351.503C248.992 371.752 218.399 373.896 198.211 356.295C178.024 338.694 175.883 308.011 193.434 287.762Z" stroke="black" stroke-width="1.5"/>
<path d="M202.371 285.885C217.83 268.048 244.778 266.159 262.561 281.663C280.344 297.167 282.229 324.194 266.769 342.031C251.31 359.868 224.361 361.757 206.579 346.253C188.796 330.749 186.911 303.721 202.371 285.885Z" stroke="black" stroke-width="1.5"/>
<path d="M211.297 286.329C224.211 271.43 246.722 269.852 261.576 282.803C276.43 295.753 278.005 318.331 265.091 333.23C252.177 348.13 229.666 349.708 214.812 336.757C199.958 323.807 198.383 301.229 211.297 286.329Z" stroke="black" stroke-width="1.5"/>
<path d="M219.247 285.594C230.07 273.106 248.936 271.784 261.385 282.637C273.834 293.491 275.153 312.413 264.33 324.9C253.507 337.387 234.642 338.709 222.193 327.856C209.744 317.002 208.424 298.081 219.247 285.594Z" stroke="black" stroke-width="1.5"/>
<path d="M227.249 285.568C236.163 275.284 251.701 274.195 261.953 283.134C272.205 292.073 273.293 307.656 264.379 317.94C255.466 328.224 239.928 329.314 229.675 320.375C219.423 311.436 218.335 295.852 227.249 285.568Z" stroke="black" stroke-width="1.5"/>
<path d="M234.329 285.071C241.425 276.884 253.793 276.017 261.954 283.132C270.115 290.248 270.981 302.653 263.885 310.84C256.79 319.026 244.421 319.892 236.261 312.777C228.1 305.662 227.234 293.258 234.329 285.071Z" stroke="black" stroke-width="1.5"/>
<path d="M243.532 284.426C248.264 278.966 256.512 278.389 261.954 283.133C267.395 287.878 267.973 296.149 263.241 301.609C258.509 307.068 250.262 307.646 244.82 302.902C239.378 298.157 238.8 289.885 243.532 284.426Z" stroke="black" stroke-width="1.5"/>
<path d="M249.359 283.838C252.545 280.162 258.098 279.773 261.762 282.968C265.426 286.162 265.815 291.731 262.629 295.407C259.443 299.084 253.889 299.473 250.225 296.278C246.562 293.084 246.173 287.514 249.359 283.838Z" stroke="black" stroke-width="1.5"/>
</svg>
