<svg width="447" height="448" viewBox="0 0 447 448" fill="none" xmlns="http://www.w3.org/2000/svg">
<path d="M106.952 122.459C50.9965 186.972 57.8188 284.731 122.186 340.81C186.553 396.888 284.093 390.053 340.048 325.54C396.003 261.027 389.182 163.269 324.815 107.19C260.448 51.1116 162.907 57.946 106.952 122.459Z" stroke="#FD870B" stroke-width="8"/>
<path d="M109.541 156.417C62.2353 210.958 68.0028 293.605 122.419 341.014C176.836 388.424 259.299 382.646 306.604 328.105C353.91 273.564 348.143 190.917 293.726 143.508C239.309 96.0984 156.847 101.876 109.541 156.417Z" stroke="#FD870B" stroke-width="8"/>
<path d="M111.293 184.704C71.2891 230.827 76.1669 300.717 122.184 340.809C168.201 380.9 237.935 376.014 277.939 329.891C317.943 283.769 313.066 213.88 267.049 173.788C221.032 133.697 151.297 138.582 111.293 184.704Z" stroke="#FD870B" stroke-width="8"/>
<path d="M113.949 219.539C82.8196 255.43 86.6158 309.816 122.424 341.013C158.233 372.21 212.497 368.408 243.626 332.518C274.756 296.627 270.96 242.242 235.152 211.044C199.344 179.847 145.079 183.648 113.949 219.539Z" stroke="#FD870B" stroke-width="8"/>
</svg>
