<svg width="447" height="448" viewBox="0 0 447 448" fill="none" xmlns="http://www.w3.org/2000/svg">
<rect width="447" height="448" fill="#6B0F1A"/>
<path d="M106.954 122.459C50.9982 186.972 57.8205 284.731 122.187 340.81C186.554 396.888 284.095 390.053 340.05 325.54C396.005 261.027 389.183 163.269 324.817 107.19C260.45 51.1116 162.909 57.946 106.954 122.459Z" stroke="#FD870B" stroke-width="8"/>
<path d="M109.543 156.417C62.2369 210.958 68.0045 293.605 122.421 341.014C176.838 388.424 259.3 382.646 306.606 328.105C353.912 273.564 348.144 190.917 293.728 143.508C239.311 96.0984 156.848 101.876 109.543 156.417Z" stroke="#FD870B" stroke-width="8"/>
<path d="M111.295 184.704C71.2907 230.827 76.1686 300.717 122.186 340.809C168.203 380.9 237.936 376.014 277.94 329.891C317.944 283.769 313.067 213.88 267.05 173.788C221.033 133.697 151.299 138.582 111.295 184.704Z" stroke="#FD870B" stroke-width="8"/>
<path d="M113.951 219.539C82.8212 255.43 86.6175 309.816 122.426 341.013C158.234 372.21 212.498 368.408 243.628 332.518C274.758 296.627 270.962 242.242 235.154 211.044C199.345 179.847 145.081 183.648 113.951 219.539Z" stroke="#FD870B" stroke-width="8"/>
</svg>
